<svg width="40" height="40" viewBox="0 0 40 40" fill="none" xmlns="http://www.w3.org/2000/svg">
<mask id="mask0_40_1690" style="mask-type:alpha" maskUnits="userSpaceOnUse" x="0" y="0" width="40" height="40">
<rect width="40" height="40" fill="#D9D9D9"/>
</mask>
<g mask="url(#mask0_40_1690)">
<path d="M20.0011 34.1666V32.0727H31.5598C31.688 32.0727 31.8055 32.0192 31.9124 31.9124C32.0192 31.8055 32.0727 31.688 32.0727 31.5598V8.44021C32.0727 8.31199 32.0192 8.19446 31.9124 8.08763C31.8055 7.98077 31.688 7.92733 31.5598 7.92733H20.0011V5.83337H31.5598C32.2761 5.83337 32.8897 6.08876 33.4005 6.59954C33.9112 7.11032 34.1666 7.72388 34.1666 8.44021V31.5598C34.1666 32.2761 33.9112 32.8897 33.4005 33.4005C32.8897 33.9112 32.2761 34.1666 31.5598 34.1666H20.0011ZM18.2543 26.6025L16.7608 25.1047L20.8185 21.047H5.83337V18.953H20.7843L16.7266 14.8953L18.2095 13.3868L24.8397 20.0224L18.2543 26.6025Z" fill="#1C1B1F"/>
</g>
</svg>
