<svg width="41" height="40" viewBox="0 0 41 40" fill="none" xmlns="http://www.w3.org/2000/svg">
<g id="logout">
<mask id="mask0_40_1294" style="mask-type:alpha" maskUnits="userSpaceOnUse" x="0" y="0" width="41" height="40">
<rect id="Bounding box" x="0.5" width="40" height="40" fill="#D9D9D9"/>
</mask>
<g mask="url(#mask0_40_1294)">
<path id="logout_2" d="M9.34621 34.1666C8.50432 34.1666 7.79171 33.875 7.20837 33.2916C6.62504 32.7083 6.33337 31.9957 6.33337 31.1538V8.84621C6.33337 8.00432 6.62504 7.29171 7.20837 6.70837C7.79171 6.12504 8.50432 5.83337 9.34621 5.83337H20.516V8.33333H9.34621C9.21799 8.33333 9.10044 8.38675 8.99358 8.49358C8.88675 8.60045 8.83333 8.71799 8.83333 8.84621V31.1538C8.83333 31.282 8.88675 31.3996 8.99358 31.5064C9.10044 31.6133 9.21799 31.6667 9.34621 31.6667H20.516V34.1666H9.34621ZM27.5513 27.1153L25.8206 25.3077L29.8783 21.25H15.6602V18.75H29.8783L25.8206 14.6923L27.5513 12.8847L34.6666 20L27.5513 27.1153Z" fill="#202020"/>
</g>
</g>
</svg>
