<svg width="154" height="56" viewBox="0 0 154 56" fill="none" xmlns="http://www.w3.org/2000/svg">
<path fill-rule="evenodd" clip-rule="evenodd" d="M12 0C5.37258 0 0 5.37258 0 12V44C0 50.6274 5.37258 56 12 56H126L153 29V12C153 5.37258 147.627 0 141 0H12Z" fill="#FFAFA3"/>
<path d="M124.58 22.6725H135.358V26.1106H124.58V22.6725ZM132.834 39.0885C131.647 39.0885 130.635 38.851 129.799 38.3761C128.962 37.9012 128.327 37.2094 127.894 36.3009C127.46 35.382 127.243 34.2721 127.243 32.9712V18.7079H131.641V32.7234C131.641 33.4874 131.807 34.045 132.137 34.396C132.467 34.7367 132.999 34.9071 133.732 34.9071C134.259 34.9071 134.806 34.8296 135.374 34.6748V38.6548C134.558 38.9439 133.712 39.0885 132.834 39.0885Z" fill="#161616"/>
<path d="M117.966 22.6726H122.364V38.6549H117.966V22.6726ZM120.165 20.3186C119.68 20.3186 119.236 20.205 118.833 19.9779C118.441 19.7507 118.126 19.4462 117.889 19.0642C117.662 18.6718 117.548 18.233 117.548 17.7478C117.548 17.2625 117.662 16.8238 117.889 16.4314C118.126 16.0288 118.441 15.719 118.833 15.5022C119.236 15.2854 119.68 15.177 120.165 15.177C120.661 15.177 121.11 15.2854 121.513 15.5022C121.915 15.719 122.225 16.0288 122.442 16.4314C122.669 16.8238 122.782 17.2625 122.782 17.7478C122.782 18.233 122.669 18.6718 122.442 19.0642C122.225 19.4462 121.915 19.7507 121.513 19.9779C121.11 20.205 120.661 20.3186 120.165 20.3186Z" fill="#161616"/>
<path d="M99.6757 16.2301H104.074V38.6549H99.6757V16.2301ZM110.454 29.9204C110.454 28.7537 110.191 27.8555 109.665 27.2257C109.148 26.5856 108.42 26.2655 107.481 26.2655C106.841 26.2655 106.263 26.4255 105.746 26.7456C105.23 27.0553 104.822 27.5406 104.523 28.2013C104.224 28.8518 104.074 29.6726 104.074 30.6637L103.578 27.6903V25.042H104.569L103.578 27.6903C103.578 26.6165 103.811 25.6718 104.275 24.8562C104.75 24.0302 105.406 23.3901 106.242 22.9359C107.078 22.4713 108.033 22.239 109.107 22.239C110.305 22.239 111.332 22.5177 112.189 23.0752C113.056 23.6328 113.717 24.4329 114.171 25.4757C114.626 26.5081 114.853 27.7419 114.853 29.177V38.6549H110.454V29.9204Z" fill="#161616"/>
<path d="M89.9339 39.0885C88.3543 39.0885 86.914 38.722 85.6131 37.989C84.3122 37.2456 83.2849 36.2338 82.5312 34.9536C81.7879 33.663 81.4162 32.2331 81.4162 30.6637C81.4162 29.0841 81.7879 27.6541 82.5312 26.3739C83.2849 25.0833 84.3122 24.0715 85.6131 23.3385C86.914 22.6055 88.3543 22.239 89.9339 22.239C91.0593 22.239 92.1072 22.4248 93.0777 22.7965C94.0585 23.1682 94.9155 23.6947 95.6485 24.3761C96.3815 25.0575 96.9545 25.8628 97.3675 26.792L93.4649 28.3097C93.1448 27.6593 92.6802 27.1586 92.0711 26.8075C91.4619 26.4462 90.7495 26.2655 89.9339 26.2655C89.1079 26.2655 88.3697 26.4513 87.7193 26.823C87.0792 27.1947 86.5733 27.7161 86.2016 28.3872C85.8402 29.0479 85.6596 29.8068 85.6596 30.6637C85.6596 31.5103 85.8402 32.2692 86.2016 32.9403C86.5733 33.601 87.0792 34.1224 87.7193 34.5044C88.3697 34.8761 89.1079 35.062 89.9339 35.062C90.7495 35.062 91.4619 34.8813 92.0711 34.5199C92.6802 34.1586 93.1448 33.6578 93.4649 33.0177L97.3675 34.5354C96.9545 35.444 96.3815 36.2441 95.6485 36.9359C94.9155 37.6173 94.0585 38.149 93.0777 38.531C92.1072 38.9027 91.0593 39.0885 89.9339 39.0885Z" fill="#161616"/>
<path d="M75.7939 30.6637C75.7939 32.5428 75.5616 34.1069 75.097 35.3562C74.6324 36.6055 73.9561 37.5398 73.0682 38.1593C72.1906 38.7788 71.1169 39.0885 69.847 39.0885C68.4222 39.0885 67.142 38.722 66.0063 37.989C64.8706 37.2559 63.9827 36.2493 63.3426 34.969C62.7024 33.6785 62.3824 32.2434 62.3824 30.6637C62.3824 29.0738 62.7024 27.6387 63.3426 26.3584C63.9827 25.0782 64.8706 24.0715 66.0063 23.3385C67.142 22.6055 68.4222 22.239 69.847 22.239C71.1169 22.239 72.1906 22.5487 73.0682 23.1682C73.9561 23.7773 74.6324 24.7117 75.097 25.9713C75.5616 27.2205 75.7939 28.7847 75.7939 30.6637L74.2142 24.8562H76.1656V36.4713H74.2142L75.7939 30.6637ZM70.8226 35.062C71.597 35.062 72.2887 34.8761 72.8979 34.5044C73.507 34.1224 73.9819 33.601 74.3226 32.9403C74.6634 32.2692 74.8337 31.5103 74.8337 30.6637C74.8337 29.8068 74.6634 29.0479 74.3226 28.3872C73.9819 27.7161 73.507 27.1947 72.8979 26.823C72.2887 26.4513 71.597 26.2655 70.8226 26.2655C70.0483 26.2655 69.3566 26.4513 68.7474 26.823C68.1486 27.1947 67.6737 27.7161 67.3227 28.3872C66.9819 29.0479 66.8116 29.8068 66.8116 30.6637C66.8116 31.5 66.9819 32.2537 67.3227 32.9248C67.6737 33.5959 68.1486 34.1224 68.7474 34.5044C69.3566 34.8761 70.0483 35.062 70.8226 35.062ZM74.7098 38.6549V35.4336L75.4067 30.6637L74.7098 26.4204V22.6726H79.108V38.6549H74.7098Z" fill="#161616"/>
<path d="M50.0698 22.6725H60.8486V26.1106H50.0698V22.6725ZM58.3242 39.0885C57.1369 39.0885 56.1251 38.851 55.2889 38.3761C54.4526 37.9012 53.8176 37.2094 53.384 36.3009C52.9504 35.382 52.7335 34.2721 52.7335 32.9712V18.7079H57.1318V32.7234C57.1318 33.4874 57.297 34.045 57.6273 34.396C57.9577 34.7367 58.4894 34.9071 59.2225 34.9071C59.749 34.9071 60.2962 34.8296 60.8641 34.6748V38.6548C60.0484 38.9439 59.2018 39.0885 58.3242 39.0885Z" fill="#161616"/>
<path d="M37.7263 22.6725H48.505V26.1106H37.7263V22.6725ZM45.9807 39.0885C44.7934 39.0885 43.7816 38.851 42.9453 38.3761C42.109 37.9012 41.4741 37.2094 41.0404 36.3009C40.6068 35.382 40.39 34.2721 40.39 32.9712V18.7079H44.7882V32.7234C44.7882 33.4874 44.9534 34.045 45.2838 34.396C45.6142 34.7367 46.1459 34.9071 46.8789 34.9071C47.4055 34.9071 47.9527 34.8296 48.5205 34.6748V38.6548C47.7049 38.9439 46.8583 39.0885 45.9807 39.0885Z" fill="#161616"/>
<path d="M25.8783 16.2301H29.9668L38.5929 38.6549H33.5597L25.8783 16.2301ZM25.1195 16.2301H28.4956L28.3407 21.3097H25.8783L29.208 16.2301L21.542 38.6549H16.4934L25.1195 16.2301ZM22.0686 29.4403H33.0177V33.7456H22.0686V29.4403Z" fill="#161616"/>
<path d="M126.133 56L126.133 41C126.133 34.3726 131.505 29 138.133 29L153.133 29L126.133 56Z" fill="#FF7A66"/>
</svg>
